<?xml version="1.0" encoding="UTF-8"?>
<!DOCTYPE svg PUBLIC "-//W3C//DTD SVG 1.1//EN" "http://www.w3.org/Graphics/SVG/1.1/DTD/svg11.dtd">
<svg width="224mm" height="126mm" viewBox="0 0 22400 12600" version="1.1" xmlns="http://www.w3.org/2000/svg" stroke-width="28.222" stroke-linejoin="round" xml:space="preserve">
 <path fill="rgb(255,255,255)" stroke="none" d="M 11192,12590 L 0,12590 0,0 22383,0 22383,12590 11192,12590 Z"/>
 <path fill="none" stroke="rgb(179,179,179)" stroke-linejoin="round" d="M 10757,10711 L 3191,10711 3191,2551 18323,2551 18323,10711 10757,10711 Z"/>
 <path fill="none" stroke="rgb(179,179,179)" stroke-linejoin="round" d="M 18323,10710 L 3191,10710"/>
 <path fill="none" stroke="rgb(179,179,179)" stroke-linejoin="round" d="M 18323,9349 L 3191,9349"/>
 <path fill="none" stroke="rgb(179,179,179)" stroke-linejoin="round" d="M 18323,7989 L 3191,7989"/>
 <path fill="none" stroke="rgb(179,179,179)" stroke-linejoin="round" d="M 18323,6629 L 3191,6629"/>
 <path fill="none" stroke="rgb(179,179,179)" stroke-linejoin="round" d="M 18323,5270 L 3191,5270"/>
 <path fill="none" stroke="rgb(179,179,179)" stroke-linejoin="round" d="M 18323,3910 L 3191,3910"/>
 <path fill="none" stroke="rgb(179,179,179)" stroke-linejoin="round" d="M 18323,2549 L 3191,2549"/>
 <path fill="none" stroke="rgb(179,179,179)" stroke-linejoin="round" d="M 3191,10860 L 3191,10710"/>
 <path fill="none" stroke="rgb(179,179,179)" stroke-linejoin="round" d="M 3191,10860 L 3191,10710"/>
 <path fill="none" stroke="rgb(179,179,179)" stroke-linejoin="round" d="M 8235,10860 L 8235,10710"/>
 <path fill="none" stroke="rgb(179,179,179)" stroke-linejoin="round" d="M 8235,10860 L 8235,10710"/>
 <path fill="none" stroke="rgb(179,179,179)" stroke-linejoin="round" d="M 13278,10860 L 13278,10710"/>
 <path fill="none" stroke="rgb(179,179,179)" stroke-linejoin="round" d="M 13278,10860 L 13278,10710"/>
 <path fill="none" stroke="rgb(179,179,179)" stroke-linejoin="round" d="M 18323,10860 L 18323,10710"/>
 <path fill="none" stroke="rgb(179,179,179)" stroke-linejoin="round" d="M 18323,10860 L 18323,10710"/>
 <path fill="none" stroke="rgb(179,179,179)" stroke-linejoin="round" d="M 3191,10710 L 18323,10710"/>
 <path fill="none" stroke="rgb(179,179,179)" stroke-linejoin="round" d="M 3041,10710 L 3191,10710"/>
 <path fill="none" stroke="rgb(179,179,179)" stroke-linejoin="round" d="M 3041,10710 L 3191,10710"/>
 <path fill="none" stroke="rgb(179,179,179)" stroke-linejoin="round" d="M 3041,9349 L 3191,9349"/>
 <path fill="none" stroke="rgb(179,179,179)" stroke-linejoin="round" d="M 3041,9349 L 3191,9349"/>
 <path fill="none" stroke="rgb(179,179,179)" stroke-linejoin="round" d="M 3041,7989 L 3191,7989"/>
 <path fill="none" stroke="rgb(179,179,179)" stroke-linejoin="round" d="M 3041,7989 L 3191,7989"/>
 <path fill="none" stroke="rgb(179,179,179)" stroke-linejoin="round" d="M 3041,6629 L 3191,6629"/>
 <path fill="none" stroke="rgb(179,179,179)" stroke-linejoin="round" d="M 3041,6629 L 3191,6629"/>
 <path fill="none" stroke="rgb(179,179,179)" stroke-linejoin="round" d="M 3041,5270 L 3191,5270"/>
 <path fill="none" stroke="rgb(179,179,179)" stroke-linejoin="round" d="M 3041,5270 L 3191,5270"/>
 <path fill="none" stroke="rgb(179,179,179)" stroke-linejoin="round" d="M 3041,3910 L 3191,3910"/>
 <path fill="none" stroke="rgb(179,179,179)" stroke-linejoin="round" d="M 3041,3910 L 3191,3910"/>
 <path fill="none" stroke="rgb(179,179,179)" stroke-linejoin="round" d="M 3041,2549 L 3191,2549"/>
 <path fill="none" stroke="rgb(179,179,179)" stroke-linejoin="round" d="M 3041,2549 L 3191,2549"/>
 <path fill="none" stroke="rgb(179,179,179)" stroke-linejoin="round" d="M 3191,10710 L 3191,2549"/>
 <path fill="rgb(0,69,134)" stroke="none" d="M 13909,10710 L 15170,10710 15170,8937 13909,8937 13909,10710 Z"/>
 <path fill="rgb(0,69,134)" stroke="none" d="M 8865,10710 L 10126,10710 10126,2969 8865,2969 8865,10710 Z"/>
 <path fill="rgb(0,69,134)" stroke="none" d="M 3821,10710 L 5082,10710 5082,6801 3821,6801 3821,10710 Z"/>
 <path fill="rgb(255,66,14)" stroke="none" d="M 15170,10710 L 16431,10710 16431,9343 15170,9343 15170,10710 Z"/>
 <path fill="rgb(255,66,14)" stroke="none" d="M 10126,10710 L 11387,10710 11387,6174 10126,6174 10126,10710 Z"/>
 <path fill="rgb(255,66,14)" stroke="none" d="M 5082,10710 L 6343,10710 6343,7375 5082,7375 5082,10710 Z"/>
 <path fill="rgb(255,211,32)" stroke="none" d="M 16431,10710 L 17692,10710 17692,10511 16431,10511 16431,10710 Z"/>
 <path fill="rgb(255,211,32)" stroke="none" d="M 11387,10710 L 12648,10710 12648,3063 11387,3063 11387,10710 Z"/>
 <path fill="rgb(255,211,32)" stroke="none" d="M 6343,10710 L 7604,10710 7604,6457 6343,6457 6343,10710 Z"/>
 <text class="TextShape"><tspan class="TextParagraph" font-family="Liberation Sans, sans-serif" font-size="353px" font-weight="400"><tspan class="TextPosition" x="5276" y="11278"><tspan fill="rgb(0,0,0)" stroke="none">Insert</tspan></tspan></tspan></text>
 <text class="TextShape"><tspan class="TextParagraph" font-family="Liberation Sans, sans-serif" font-size="353px" font-weight="400"><tspan class="TextPosition" x="10307" y="11278"><tspan fill="rgb(0,0,0)" stroke="none">Erase</tspan></tspan></tspan></text>
 <text class="TextShape"><tspan class="TextParagraph" font-family="Liberation Sans, sans-serif" font-size="353px" font-weight="400"><tspan class="TextPosition" x="15219" y="11278"><tspan fill="rgb(0,0,0)" stroke="none">LookUp</tspan></tspan></tspan></text>
 <text class="TextShape"><tspan class="TextParagraph" font-family="Liberation Sans, sans-serif" font-size="353px" font-weight="400"><tspan class="TextPosition" x="2571" y="10831"><tspan fill="rgb(0,0,0)" stroke="none">10</tspan></tspan></tspan></text>
 <text class="TextShape"><tspan class="TextParagraph" font-family="Liberation Sans, sans-serif" font-size="353px" font-weight="400"><tspan class="TextPosition" x="2385" y="9470"><tspan fill="rgb(0,0,0)" stroke="none">100</tspan></tspan></tspan></text>
 <text class="TextShape"><tspan class="TextParagraph" font-family="Liberation Sans, sans-serif" font-size="353px" font-weight="400"><tspan class="TextPosition" x="2200" y="8110"><tspan fill="rgb(0,0,0)" stroke="none">1000</tspan></tspan></tspan></text>
 <text class="TextShape"><tspan class="TextParagraph" font-family="Liberation Sans, sans-serif" font-size="353px" font-weight="400"><tspan class="TextPosition" x="2015" y="6750"><tspan fill="rgb(0,0,0)" stroke="none">10000</tspan></tspan></tspan></text>
 <text class="TextShape"><tspan class="TextParagraph" font-family="Liberation Sans, sans-serif" font-size="353px" font-weight="400"><tspan class="TextPosition" x="1830" y="5390"><tspan fill="rgb(0,0,0)" stroke="none">100000</tspan></tspan></tspan></text>
 <text class="TextShape"><tspan class="TextParagraph" font-family="Liberation Sans, sans-serif" font-size="353px" font-weight="400"><tspan class="TextPosition" x="1645" y="4030"><tspan fill="rgb(0,0,0)" stroke="none">1000000</tspan></tspan></tspan></text>
 <text class="TextShape"><tspan class="TextParagraph" font-family="Liberation Sans, sans-serif" font-size="353px" font-weight="400"><tspan class="TextPosition" x="1459" y="2669"><tspan fill="rgb(0,0,0)" stroke="none">10000000</tspan></tspan></tspan></text>
 <text class="TextShape"><tspan class="TextParagraph" font-family="Liberation Sans, sans-serif" font-size="459px" font-weight="400"><tspan class="TextPosition" x="8758" y="922"><tspan fill="rgb(0,0,0)" stroke="none">Set operation time for int</tspan></tspan></tspan></text>
 <text class="TextShape"><tspan class="TextParagraph" font-family="Liberation Sans, sans-serif" font-size="388px" font-weight="400"><tspan class="TextPosition" x="9961" y="1903"><tspan fill="rgb(0,0,0)" stroke="none">(less is better)</tspan></tspan></tspan></text>
 <path fill="rgb(0,69,134)" stroke="none" d="M 18992,5902 L 18886,5902 18886,5691 19097,5691 19097,5902 18992,5902 Z"/>
 <path fill="rgb(255,66,14)" stroke="none" d="M 18992,6399 L 18886,6399 18886,6189 19097,6189 19097,6399 18992,6399 Z"/>
 <path fill="rgb(255,211,32)" stroke="none" d="M 18992,6897 L 18886,6897 18886,6686 19097,6686 19097,6897 18992,6897 Z"/>
 <text class="TextShape"><tspan class="TextParagraph" font-family="Liberation Sans, sans-serif" font-size="353px" font-weight="400"><tspan class="TextPosition" x="19197" y="5916"><tspan fill="rgb(0,0,0)" stroke="none">std::set</tspan></tspan></tspan></text>
 <text class="TextShape"><tspan class="TextParagraph" font-family="Liberation Sans, sans-serif" font-size="353px" font-weight="400"><tspan class="TextPosition" x="19197" y="6413"><tspan fill="rgb(0,0,0)" stroke="none">amc::FlatSet</tspan></tspan></tspan></text>
 <text class="TextShape"><tspan class="TextParagraph" font-family="Liberation Sans, sans-serif" font-size="353px" font-weight="400"><tspan class="TextPosition" x="19197" y="6911"><tspan fill="rgb(0,0,0)" stroke="none">std::unordered_set</tspan></tspan></tspan></text>
 <text class="TextShape"><tspan class="TextParagraph" font-family="Liberation Sans, sans-serif" font-size="318px" font-weight="400"><tspan class="TextPosition" x="9176" y="11996"><tspan fill="rgb(0,0,0)" stroke="none">Operation</tspan></tspan></tspan></text>
 <text class="TextShape" transform="translate(837,7476) rotate(-90) translate(-837,-7476)"><tspan class="TextParagraph" font-family="Liberation Sans, sans-serif" font-size="318px" font-weight="400"><tspan class="TextPosition" x="837" y="7476"><tspan fill="rgb(0,0,0)" stroke="none">time (ns)</tspan></tspan></tspan></text>
</svg>