<?xml version="1.0" encoding="UTF-8"?>
<!DOCTYPE svg PUBLIC "-//W3C//DTD SVG 1.1//EN" "http://www.w3.org/Graphics/SVG/1.1/DTD/svg11.dtd">
<svg width="224mm" height="126mm" viewBox="0 0 22400 12600" version="1.1" xmlns="http://www.w3.org/2000/svg" stroke-width="28.222" stroke-linejoin="round" xml:space="preserve">
 <path fill="rgb(255,255,255)" stroke="none" d="M 11192,12590 L 0,12590 0,0 22383,0 22383,12590 11192,12590 Z"/>
 <path fill="none" stroke="rgb(179,179,179)" stroke-linejoin="round" d="M 11009,10711 L 2820,10711 2820,2550 19197,2550 19197,10711 11009,10711 Z"/>
 <path fill="none" stroke="rgb(179,179,179)" stroke-linejoin="round" d="M 19197,10710 L 2820,10710"/>
 <path fill="none" stroke="rgb(179,179,179)" stroke-linejoin="round" d="M 19197,7989 L 2820,7989"/>
 <path fill="none" stroke="rgb(179,179,179)" stroke-linejoin="round" d="M 19197,5269 L 2820,5269"/>
 <path fill="none" stroke="rgb(179,179,179)" stroke-linejoin="round" d="M 19197,2548 L 2820,2548"/>
 <path fill="none" stroke="rgb(179,179,179)" stroke-linejoin="round" d="M 2820,10860 L 2820,10710"/>
 <path fill="none" stroke="rgb(179,179,179)" stroke-linejoin="round" d="M 2820,10860 L 2820,10710"/>
 <path fill="none" stroke="rgb(179,179,179)" stroke-linejoin="round" d="M 8279,10860 L 8279,10710"/>
 <path fill="none" stroke="rgb(179,179,179)" stroke-linejoin="round" d="M 8279,10860 L 8279,10710"/>
 <path fill="none" stroke="rgb(179,179,179)" stroke-linejoin="round" d="M 13737,10860 L 13737,10710"/>
 <path fill="none" stroke="rgb(179,179,179)" stroke-linejoin="round" d="M 13737,10860 L 13737,10710"/>
 <path fill="none" stroke="rgb(179,179,179)" stroke-linejoin="round" d="M 19197,10860 L 19197,10710"/>
 <path fill="none" stroke="rgb(179,179,179)" stroke-linejoin="round" d="M 19197,10860 L 19197,10710"/>
 <path fill="none" stroke="rgb(179,179,179)" stroke-linejoin="round" d="M 2820,10710 L 19197,10710"/>
 <path fill="none" stroke="rgb(179,179,179)" stroke-linejoin="round" d="M 2670,10710 L 2820,10710"/>
 <path fill="none" stroke="rgb(179,179,179)" stroke-linejoin="round" d="M 2670,10710 L 2820,10710"/>
 <path fill="none" stroke="rgb(179,179,179)" stroke-linejoin="round" d="M 2670,7989 L 2820,7989"/>
 <path fill="none" stroke="rgb(179,179,179)" stroke-linejoin="round" d="M 2670,7989 L 2820,7989"/>
 <path fill="none" stroke="rgb(179,179,179)" stroke-linejoin="round" d="M 2670,5269 L 2820,5269"/>
 <path fill="none" stroke="rgb(179,179,179)" stroke-linejoin="round" d="M 2670,5269 L 2820,5269"/>
 <path fill="none" stroke="rgb(179,179,179)" stroke-linejoin="round" d="M 2670,2548 L 2820,2548"/>
 <path fill="none" stroke="rgb(179,179,179)" stroke-linejoin="round" d="M 2670,2548 L 2820,2548"/>
 <path fill="none" stroke="rgb(179,179,179)" stroke-linejoin="round" d="M 2820,10710 L 2820,2548"/>
 <path fill="rgb(0,69,134)" stroke="none" d="M 14647,10710 L 16467,10710 16467,8021 14647,8021 14647,10710 Z"/>
 <path fill="rgb(0,69,134)" stroke="none" d="M 9189,10710 L 11008,10710 11008,2883 9189,2883 9189,10710 Z"/>
 <path fill="rgb(0,69,134)" stroke="none" d="M 3729,10710 L 5549,10710 5549,4964 3729,4964 3729,10710 Z"/>
 <path fill="rgb(255,66,14)" stroke="none" d="M 16467,10710 L 18287,10710 18287,9384 16467,9384 16467,10710 Z"/>
 <path fill="rgb(255,66,14)" stroke="none" d="M 11009,10710 L 12827,10710 12827,3516 11009,3516 11009,10710 Z"/>
 <path fill="rgb(255,66,14)" stroke="none" d="M 5549,10710 L 7369,10710 7369,5201 5549,5201 5549,10710 Z"/>
 <text class="TextShape"><tspan class="TextParagraph" font-family="Liberation Sans, sans-serif" font-size="353px" font-weight="400"><tspan class="TextPosition" x="5112" y="11278"><tspan fill="rgb(0,0,0)" stroke="none">Insert</tspan></tspan></tspan></text>
 <text class="TextShape"><tspan class="TextParagraph" font-family="Liberation Sans, sans-serif" font-size="353px" font-weight="400"><tspan class="TextPosition" x="10559" y="11278"><tspan fill="rgb(0,0,0)" stroke="none">Erase</tspan></tspan></tspan></text>
 <text class="TextShape"><tspan class="TextParagraph" font-family="Liberation Sans, sans-serif" font-size="353px" font-weight="400"><tspan class="TextPosition" x="15886" y="11278"><tspan fill="rgb(0,0,0)" stroke="none">LookUp</tspan></tspan></tspan></text>
 <text class="TextShape"><tspan class="TextParagraph" font-family="Liberation Sans, sans-serif" font-size="353px" font-weight="400"><tspan class="TextPosition" x="2014" y="10831"><tspan fill="rgb(0,0,0)" stroke="none">100</tspan></tspan></tspan></text>
 <text class="TextShape"><tspan class="TextParagraph" font-family="Liberation Sans, sans-serif" font-size="353px" font-weight="400"><tspan class="TextPosition" x="1829" y="8110"><tspan fill="rgb(0,0,0)" stroke="none">1000</tspan></tspan></tspan></text>
 <text class="TextShape"><tspan class="TextParagraph" font-family="Liberation Sans, sans-serif" font-size="353px" font-weight="400"><tspan class="TextPosition" x="1644" y="5389"><tspan fill="rgb(0,0,0)" stroke="none">10000</tspan></tspan></tspan></text>
 <text class="TextShape"><tspan class="TextParagraph" font-family="Liberation Sans, sans-serif" font-size="353px" font-weight="400"><tspan class="TextPosition" x="1459" y="2668"><tspan fill="rgb(0,0,0)" stroke="none">100000</tspan></tspan></tspan></text>
 <text class="TextShape"><tspan class="TextParagraph" font-family="Liberation Sans, sans-serif" font-size="459px" font-weight="400"><tspan class="TextPosition" x="5741" y="922"><tspan fill="rgb(0,0,0)" stroke="none">Set operation time for complex trivially relocatable type</tspan></tspan></tspan></text>
 <text class="TextShape"><tspan class="TextParagraph" font-family="Liberation Sans, sans-serif" font-size="388px" font-weight="400"><tspan class="TextPosition" x="9961" y="1903"><tspan fill="rgb(0,0,0)" stroke="none">(less is better)</tspan></tspan></tspan></text>
 <path fill="rgb(0,69,134)" stroke="none" d="M 19866,6151 L 19760,6151 19760,5940 19971,5940 19971,6151 19866,6151 Z"/>
 <path fill="rgb(255,66,14)" stroke="none" d="M 19866,6648 L 19760,6648 19760,6437 19971,6437 19971,6648 19866,6648 Z"/>
 <text class="TextShape"><tspan class="TextParagraph" font-family="Liberation Sans, sans-serif" font-size="353px" font-weight="400"><tspan class="TextPosition" x="20071" y="6165"><tspan fill="rgb(0,0,0)" stroke="none">std::set</tspan></tspan></tspan></text>
 <text class="TextShape"><tspan class="TextParagraph" font-family="Liberation Sans, sans-serif" font-size="353px" font-weight="400"><tspan class="TextPosition" x="20071" y="6662"><tspan fill="rgb(0,0,0)" stroke="none">amc::FlatSet</tspan></tspan></tspan></text>
 <text class="TextShape"><tspan class="TextParagraph" font-family="Liberation Sans, sans-serif" font-size="318px" font-weight="400"><tspan class="TextPosition" x="9613" y="11996"><tspan fill="rgb(0,0,0)" stroke="none">Operation</tspan></tspan></tspan></text>
 <text class="TextShape" transform="translate(837,7476) rotate(-90) translate(-837,-7476)"><tspan class="TextParagraph" font-family="Liberation Sans, sans-serif" font-size="318px" font-weight="400"><tspan class="TextPosition" x="837" y="7476"><tspan fill="rgb(0,0,0)" stroke="none">time (ns)</tspan></tspan></tspan></text>
</svg>