<?xml version="1.0" encoding="UTF-8"?>
<!DOCTYPE svg PUBLIC "-//W3C//DTD SVG 1.1//EN" "http://www.w3.org/Graphics/SVG/1.1/DTD/svg11.dtd">
<svg width="233mm" height="131mm" viewBox="0 0 23300 13100" version="1.1" xmlns="http://www.w3.org/2000/svg" stroke-width="28.222" stroke-linejoin="round" xml:space="preserve">
 <path fill="rgb(255,255,255)" stroke="none" d="M 11700,13128 L 30,13128 30,0 23370,0 23370,13128 11700,13128 Z"/>
 <path fill="none" stroke="rgb(179,179,179)" stroke-linejoin="round" d="M 11596,11238 L 2869,11238 2869,2584 20323,2584 20323,11238 11596,11238 Z"/>
 <path fill="none" stroke="rgb(179,179,179)" stroke-linejoin="round" d="M 20323,11237 L 2869,11237"/>
 <path fill="none" stroke="rgb(179,179,179)" stroke-linejoin="round" d="M 20323,9506 L 2869,9506"/>
 <path fill="none" stroke="rgb(179,179,179)" stroke-linejoin="round" d="M 20323,7775 L 2869,7775"/>
 <path fill="none" stroke="rgb(179,179,179)" stroke-linejoin="round" d="M 20323,6044 L 2869,6044"/>
 <path fill="none" stroke="rgb(179,179,179)" stroke-linejoin="round" d="M 20323,4313 L 2869,4313"/>
 <path fill="none" stroke="rgb(179,179,179)" stroke-linejoin="round" d="M 20323,2582 L 2869,2582"/>
 <path fill="none" stroke="rgb(179,179,179)" stroke-linejoin="round" d="M 2869,11387 L 2869,11237"/>
 <path fill="none" stroke="rgb(179,179,179)" stroke-linejoin="round" d="M 2869,11387 L 2869,11237"/>
 <path fill="none" stroke="rgb(179,179,179)" stroke-linejoin="round" d="M 7232,11387 L 7232,11237"/>
 <path fill="none" stroke="rgb(179,179,179)" stroke-linejoin="round" d="M 7232,11387 L 7232,11237"/>
 <path fill="none" stroke="rgb(179,179,179)" stroke-linejoin="round" d="M 11596,11387 L 11596,11237"/>
 <path fill="none" stroke="rgb(179,179,179)" stroke-linejoin="round" d="M 11596,11387 L 11596,11237"/>
 <path fill="none" stroke="rgb(179,179,179)" stroke-linejoin="round" d="M 15959,11387 L 15959,11237"/>
 <path fill="none" stroke="rgb(179,179,179)" stroke-linejoin="round" d="M 15959,11387 L 15959,11237"/>
 <path fill="none" stroke="rgb(179,179,179)" stroke-linejoin="round" d="M 20323,11387 L 20323,11237"/>
 <path fill="none" stroke="rgb(179,179,179)" stroke-linejoin="round" d="M 20323,11387 L 20323,11237"/>
 <path fill="none" stroke="rgb(179,179,179)" stroke-linejoin="round" d="M 2869,11237 L 20323,11237"/>
 <path fill="none" stroke="rgb(179,179,179)" stroke-linejoin="round" d="M 2719,11237 L 2869,11237"/>
 <path fill="none" stroke="rgb(179,179,179)" stroke-linejoin="round" d="M 2719,11237 L 2869,11237"/>
 <path fill="none" stroke="rgb(179,179,179)" stroke-linejoin="round" d="M 2719,9506 L 2869,9506"/>
 <path fill="none" stroke="rgb(179,179,179)" stroke-linejoin="round" d="M 2719,9506 L 2869,9506"/>
 <path fill="none" stroke="rgb(179,179,179)" stroke-linejoin="round" d="M 2719,7775 L 2869,7775"/>
 <path fill="none" stroke="rgb(179,179,179)" stroke-linejoin="round" d="M 2719,7775 L 2869,7775"/>
 <path fill="none" stroke="rgb(179,179,179)" stroke-linejoin="round" d="M 2719,6044 L 2869,6044"/>
 <path fill="none" stroke="rgb(179,179,179)" stroke-linejoin="round" d="M 2719,6044 L 2869,6044"/>
 <path fill="none" stroke="rgb(179,179,179)" stroke-linejoin="round" d="M 2719,4313 L 2869,4313"/>
 <path fill="none" stroke="rgb(179,179,179)" stroke-linejoin="round" d="M 2719,4313 L 2869,4313"/>
 <path fill="none" stroke="rgb(179,179,179)" stroke-linejoin="round" d="M 2719,2582 L 2869,2582"/>
 <path fill="none" stroke="rgb(179,179,179)" stroke-linejoin="round" d="M 2719,2582 L 2869,2582"/>
 <path fill="none" stroke="rgb(179,179,179)" stroke-linejoin="round" d="M 2869,11237 L 2869,2582"/>
 <path fill="rgb(0,69,134)" stroke="none" d="M 16686,11237 L 18141,11237 18141,3746 16686,3746 16686,11237 Z"/>
 <path fill="rgb(0,69,134)" stroke="none" d="M 12322,11237 L 13777,11237 13777,8239 12322,8239 12322,11237 Z"/>
 <path fill="rgb(0,69,134)" stroke="none" d="M 7960,11237 L 9414,11237 9414,9372 7960,9372 7960,11237 Z"/>
 <path fill="rgb(0,69,134)" stroke="none" d="M 3596,11237 L 5050,11237 5050,9012 3596,9012 3596,11237 Z"/>
 <path fill="rgb(255,66,14)" stroke="none" d="M 18141,11237 L 19595,11237 19595,5322 18141,5322 18141,11237 Z"/>
 <path fill="rgb(255,66,14)" stroke="none" d="M 13777,11237 L 15231,11237 15231,9700 13777,9700 13777,11237 Z"/>
 <path fill="rgb(255,66,14)" stroke="none" d="M 9414,11237 L 10869,11237 10869,9886 9414,9886 9414,11237 Z"/>
 <path fill="rgb(255,66,14)" stroke="none" d="M 5050,11237 L 6505,11237 6505,10987 5050,10987 5050,11237 Z"/>
 <text class="TextShape"><tspan class="TextParagraph" font-family="Liberation Sans, sans-serif" font-size="353px" font-weight="400"><tspan class="TextPosition" x="4005" y="11805"><tspan fill="rgb(0,0,0)" stroke="none">InsertNElems</tspan></tspan></tspan></text>
 <text class="TextShape"><tspan class="TextParagraph" font-family="Liberation Sans, sans-serif" font-size="353px" font-weight="400"><tspan class="TextPosition" x="8355" y="11805"><tspan fill="rgb(0,0,0)" stroke="none">InsertFromPtr</tspan></tspan></tspan></text>
 <text class="TextShape"><tspan class="TextParagraph" font-family="Liberation Sans, sans-serif" font-size="353px" font-weight="400"><tspan class="TextPosition" x="12230" y="11805"><tspan fill="rgb(0,0,0)" stroke="none">InsertFromForwardIt</tspan></tspan></tspan></text>
 <text class="TextShape"><tspan class="TextParagraph" font-family="Liberation Sans, sans-serif" font-size="353px" font-weight="400"><tspan class="TextPosition" x="17692" y="11805"><tspan fill="rgb(0,0,0)" stroke="none">Erase</tspan></tspan></tspan></text>
 <text class="TextShape"><tspan class="TextParagraph" font-family="Liberation Sans, sans-serif" font-size="353px" font-weight="400"><tspan class="TextPosition" x="2434" y="11358"><tspan fill="rgb(0,0,0)" stroke="none">0</tspan></tspan></tspan></text>
 <text class="TextShape"><tspan class="TextParagraph" font-family="Liberation Sans, sans-serif" font-size="353px" font-weight="400"><tspan class="TextPosition" x="1693" y="9627"><tspan fill="rgb(0,0,0)" stroke="none">50000</tspan></tspan></tspan></text>
 <text class="TextShape"><tspan class="TextParagraph" font-family="Liberation Sans, sans-serif" font-size="353px" font-weight="400"><tspan class="TextPosition" x="1508" y="7896"><tspan fill="rgb(0,0,0)" stroke="none">100000</tspan></tspan></tspan></text>
 <text class="TextShape"><tspan class="TextParagraph" font-family="Liberation Sans, sans-serif" font-size="353px" font-weight="400"><tspan class="TextPosition" x="1508" y="6164"><tspan fill="rgb(0,0,0)" stroke="none">150000</tspan></tspan></tspan></text>
 <text class="TextShape"><tspan class="TextParagraph" font-family="Liberation Sans, sans-serif" font-size="353px" font-weight="400"><tspan class="TextPosition" x="1508" y="4433"><tspan fill="rgb(0,0,0)" stroke="none">200000</tspan></tspan></tspan></text>
 <text class="TextShape"><tspan class="TextParagraph" font-family="Liberation Sans, sans-serif" font-size="353px" font-weight="400"><tspan class="TextPosition" x="1508" y="2702"><tspan fill="rgb(0,0,0)" stroke="none">250000</tspan></tspan></tspan></text>
 <text class="TextShape"><tspan class="TextParagraph" font-family="Liberation Sans, sans-serif" font-size="459px" font-weight="400"><tspan class="TextPosition" x="6712" y="933"><tspan fill="rgb(0,0,0)" stroke="none">Vector operation time for trivially relocatable types</tspan></tspan></tspan></text>
 <text class="TextShape"><tspan class="TextParagraph" font-family="Liberation Sans, sans-serif" font-size="388px" font-weight="400"><tspan class="TextPosition" x="10469" y="1925"><tspan fill="rgb(0,0,0)" stroke="none">(less is better)</tspan></tspan></tspan></text>
 <path fill="rgb(0,69,134)" stroke="none" d="M 21011,6420 L 20905,6420 20905,6209 21116,6209 21116,6420 21011,6420 Z"/>
 <path fill="rgb(255,66,14)" stroke="none" d="M 21011,6917 L 20905,6917 20905,6706 21116,6706 21116,6917 21011,6917 Z"/>
 <text class="TextShape"><tspan class="TextParagraph" font-family="Liberation Sans, sans-serif" font-size="353px" font-weight="400"><tspan class="TextPosition" x="21216" y="6434"><tspan fill="rgb(0,0,0)" stroke="none">std::vector</tspan></tspan></tspan></text>
 <text class="TextShape"><tspan class="TextParagraph" font-family="Liberation Sans, sans-serif" font-size="353px" font-weight="400"><tspan class="TextPosition" x="21216" y="6931"><tspan fill="rgb(0,0,0)" stroke="none">amc::vector</tspan></tspan></tspan></text>
 <text class="TextShape"><tspan class="TextParagraph" font-family="Liberation Sans, sans-serif" font-size="318px" font-weight="400"><tspan class="TextPosition" x="10200" y="12534"><tspan fill="rgb(0,0,0)" stroke="none">Operation</tspan></tspan></tspan></text>
 <text class="TextShape" transform="translate(867,7756) rotate(-90) translate(-867,-7756)"><tspan class="TextParagraph" font-family="Liberation Sans, sans-serif" font-size="318px" font-weight="400"><tspan class="TextPosition" x="867" y="7756"><tspan fill="rgb(0,0,0)" stroke="none">time (ns)</tspan></tspan></tspan></text>
</svg>